<svg xmlns="http://www.w3.org/2000/svg" width="227.949" height="228.843" viewBox="0 0 60.312 60.548"><path d="M25.786 60.296C12.962 58.448 2.49 48.085.396 35.167-2.583 16.81 11.64 0 30.151 0 44.91 0 57.54 10.825 59.923 25.517c2.7 16.64-8.972 32.469-25.653 34.789-2.348.327-6.18.322-8.484-.01zm8.814-10.99c1.083-.225 3.005-.934 4.365-1.611 2.007-.998 2.852-1.63 4.84-3.616 2.039-2.037 2.599-2.794 3.638-4.92 1.663-3.402 2.117-5.305 2.117-8.864 0-3.56-.454-5.462-2.117-8.864-1.042-2.132-1.594-2.877-3.638-4.91-3.982-3.963-8.135-5.695-13.653-5.695-5.519 0-9.672 1.732-13.654 5.695-2.044 2.033-2.595 2.778-3.638 4.91-1.663 3.402-2.117 5.304-2.117 8.864 0 3.56.454 5.462 2.117 8.863 1.043 2.133 1.594 2.877 3.638 4.911 5.045 5.02 10.94 6.725 18.102 5.237z" fill="#f8f8f8"/></svg>
