<svg id="Слой_1" xmlns="http://www.w3.org/2000/svg" viewBox="0 0 327.6 167.4"><style>.st0{fill:#2429ff}</style><g id="Слой_2_1_"><g id="Слой_1-2"><path class="st0" d="M8.7 19.8c2.1 0 4.2.7 5.9 2 1.8 1.6 3.4 3.4 4.9 5.4 4.4 5.7 8.5 11.8 15 15.3 7.4 4 16.1 4.4 23.8 1.1 7.1-3 11.6-8.8 16.2-14.8 3.1-4.1 6-8.4 11-9 1.9-.1 3.7.3 5.4 1.1 2.1 1.1 3.9 3.2 5.9 5.7 3.4 4.2 7.9 10.8 13.3 14.6 6.7 4.5 15.1 5.8 22.9 3.5 7.5-2.2 12.7-7.6 17.3-13.6 1.8-2.3 3.2-4.4 4.6-6 1-1.2 2.2-2.4 3.4-3.4-.9.7 2.8-1.6 1.8-1.1 2.3-1.1 5-1.2 7.4-.2.9.4 1.7 1 2.5 1.6-.9-.7.3.3.4.4.8.8 1.6 1.6 2.3 2.4 3.5 4 7.1 10.1 12 14.2 13.1 11.1 30.7 7.6 41.1-5.2 3.8-4.8 6.9-10.4 11.3-12.9 3.9-2 8.6-1.1 11.5 2.1 4.5 4.7 7.8 10.9 13.2 15.7 7.1 6.4 17 8.7 26.2 6.1 8.2-2.4 13.6-8.6 18.5-15.2 1.8-2.6 3.8-5 6.1-7.2 1.8-1.6 4.1-2.5 6.4-2.5 11.6-.3 11.6-18.3 0-18-7.8.1-15.2 3.4-20.5 9.2-4.9 5-7.3 10.4-12.2 14.6-3.4 2.7-8.1 2.9-11.7.4-.6-.4-4-4-4.5-4.7-2.3-2.9-4.4-6-6.9-8.9-10.8-12.5-28.7-14.1-41-2.9-4.8 4.4-7.9 10.2-11.9 14.3-3.1 3.2-7.5 5-11.4 3.2-4.9-2.3-7.7-7.7-11.5-12.5-4.4-5.5-9.9-10.4-16.9-12-8.2-2-16.9-.2-23.6 5-5.1 4-9.2 10.5-12.6 14.5-3.7 4.3-6.7 6.7-11.9 5.4-4.1-1-7.4-6-10.6-10.2-4.6-6-9.6-11.5-17-14.1-7.7-2.5-16.1-1.6-23 2.6-6.1 3.9-10.8 11.3-14.6 16-4 4.8-8.3 7.7-13.3 5.4-5.3-2.4-8.4-8.8-12.8-14-5.8-7-13.3-11.1-22.4-11.4-11.6-.3-11.6 17.7 0 18zM8.7 79.7c2.1 0 4.2.7 5.9 2 1.8 1.6 3.4 3.4 4.9 5.3 4.4 5.7 8.5 11.8 15 15.3 7.3 4 16.1 4.4 23.8 1.1 7.1-3 11.6-8.8 16.2-14.8 3.1-4.1 6-8.4 11-9 1.9-.1 3.7.3 5.4 1.1 2.1 1.1 3.9 3.2 5.9 5.8 3.4 4.2 7.9 10.8 13.3 14.6 6.7 4.5 15.1 5.8 22.9 3.5 7.4-2.2 12.6-7.6 17.2-13.6 1.8-2.3 3.2-4.4 4.6-6 1-1.2 2.2-2.4 3.4-3.4-.9.7 2.8-1.6 1.8-1.1 2.3-1.1 5-1.2 7.4-.2.9.4 1.8.9 2.6 1.5-.9-.7.3.3.4.4.8.8 1.6 1.6 2.3 2.4 3.5 4 7.1 10.1 12 14.2 13.1 11.1 30.7 7.6 41.1-5.2 3.9-4.8 6.9-10.4 11.3-12.8 3.9-2 8.6-1.1 11.5 2.1 4.5 4.7 7.8 10.9 13.2 15.7 7.1 6.4 17 8.7 26.2 6.1 8.2-2.4 13.6-8.6 18.5-15.2 1.8-2.6 3.8-5 6.1-7.2 1.7-1.6 4-2.5 6.4-2.5 11.6-.3 11.6-18.3 0-18-7.8.2-15.2 3.5-20.5 9.2-4.9 5-7.3 10.4-12.2 14.7-3.4 2.7-8.1 2.9-11.7.4-.6-.4-4-4-4.5-4.7-2.3-2.9-4.4-6-6.9-8.8-10.8-12.4-28.7-14.1-40.9-2.8-4.8 4.4-7.9 10.2-11.9 14.3-3.1 3.2-7.5 5-11.4 3.2-4.9-2.3-7.7-7.7-11.5-12.5-4.4-5.5-9.9-10.4-16.9-12-8.2-2-16.9-.2-23.6 5-5.1 4-9.2 10.5-12.6 14.5-3.7 4.3-6.7 6.7-11.9 5.4-4.1-1-7.4-6-10.6-10.2-4.6-6-9.6-11.5-17-14.1-7.7-2.5-16.1-1.6-23 2.6-6.2 3.6-10.9 11-14.7 15.7-4 4.8-8.3 7.7-13.3 5.4-5.3-2.4-8.4-8.8-12.8-14-5.8-7-13.3-11.1-22.4-11.4-11.6-.3-11.6 17.7 0 18zM8.7 139.6c2.1 0 4.2.7 5.9 2 1.8 1.7 3.4 3.5 4.9 5.4 4.4 5.7 8.5 11.8 15 15.3 7.3 4 16.1 4.4 23.8 1.1 7.1-3 11.6-8.8 16.2-14.9 3.1-4.1 6-8.4 11-9 1.9-.1 3.7.3 5.4 1.1 2.1 1.1 3.9 3.2 5.9 5.8 3.4 4.2 7.9 10.8 13.3 14.6 6.7 4.5 15.1 5.8 22.9 3.5 7.5-2.2 12.7-7.6 17.3-13.6 1.8-2.3 3.2-4.4 4.6-6 1-1.2 2.2-2.4 3.4-3.4-.9.7 2.8-1.6 1.8-1.1 2.3-1.1 5-1.2 7.4-.2.9.4 1.8.9 2.6 1.5-.9-.7.3.3.4.4.8.8 1.6 1.6 2.3 2.4 3.5 3.9 7.1 10.1 12 14.2 13.1 11.1 30.7 7.6 41.1-5.2 3.9-4.8 6.9-10.4 11.3-12.8 3.9-2 8.6-1.1 11.5 2.1 4.5 4.7 7.8 10.9 13.3 15.7 7.1 6.4 17 8.7 26.2 6.1 8.2-2.4 13.6-8.6 18.5-15.2 1.8-2.6 3.8-5 6.1-7.2 1.7-1.6 4-2.5 6.4-2.5 11.6-.3 11.6-18.3 0-18-7.8.2-15.2 3.5-20.5 9.2-4.9 5-7.3 10.4-12.2 14.6-3.4 2.7-8.1 2.9-11.7.4-.6-.4-4-4.1-4.5-4.7-2.3-2.9-4.4-6-6.9-8.9-10.8-12.4-28.7-14.1-40.9-2.8-4.8 4.4-7.9 10.2-11.9 14.3-3.1 3.2-7.5 5-11.4 3.2-4.9-2.3-7.7-7.7-11.5-12.5-4.4-5.5-9.9-10.4-16.9-12-8.2-2-16.9-.2-23.6 5-5.1 4-9.2 10.5-12.6 14.5-3.7 4.3-6.7 6.7-11.9 5.4-4.1-1-7.4-6-10.6-10.2-4.6-6-9.6-11.5-17-14.1-7.7-2.5-16.1-1.6-23 2.6-6.2 3.9-10.9 11.3-14.8 15.9-4 4.8-8.3 7.7-13.3 5.4-5.3-2.4-8.4-8.8-12.8-14-5.8-6.9-13.3-11.1-22.4-11.3-11.6-.3-11.6 17.7-.1 17.9z"/></g></g></svg>